# xmcd
#
# Track frame offsets:
#	151
#	24176
#	47073
#	63026
#	98836
#	128511
#	161380
#	176959
#	213843
#	235112
#	273647
#
# Disc length: 4000
#
# Revision: 1
# Processed by: cddbd v1.5.1PL0 Copyright (c) Steve Scherf et al.
# Submitted via: CDex 1.50
# Normalized: r0:TDELIM( - )
#
DISCID=880f9e0b
DTITLE=Various Artist - Visions of music - World Jazz
DYEAR=1998
DGENRE=New Age
TTITLE0=Rabih Abou-Khalil - The sphinx and I
TTITLE1=Richard Galliano/Michel Portal - Viaggio
TTITLE2=Cyro Baptisra - Dansa
TTITLE3=Dauner Mariano Saluzzi - One night in 88
TTITLE4=Renaud Garcia-Fons - Oriental Bass
TTITLE5=Eddie Palmieri - Acuzar
TTITLE6=Abdullah Ibrahim - Baraakat
TTITLE7=Rabih Abouh-Khalil - Sunrise in Montreal
TTITLE8=Cassandra Wilson - Electromagnolia
TTITLE9=Hasidic New Wave - Satmer Hakafos #6
TTITLE10=The South African Gospel Singers - Hambani Madoda
EXTD=YEAR: 1998
EXTT0=
EXTT1=
EXTT2=
EXTT3=
EXTT4=
EXTT5=
EXTT6=
EXTT7=
EXTT8=
EXTT9=
EXTT10=
PLAYORDER=
